#!OML:ASF H:\Terrain\Walking\May29\JustinRory\Justin.ASF
:FULLY-SPECIFIED
:DEGREES
65
root 18.953 16.5242 -11.4832 2.68246 -34.1944 4.20944
lowerback 9.75151 2.48325 -6.03999
upperback 3.98743 2.70614 0.485421
thorax -1.60466 1.2827 3.5968
lowerneck -16.6564 -4.6842 -11.0309
upperneck 17.0054 -5.26871 7.98549
head 8.55486 -2.41191 3.86634
rclavicle -5.75482e-014 1.19271e-015
rhumerus -23.2068 -17.0127 -68.1486
rradius 115.663
rwrist -10.3764
rhand -46.2734 33.0319
rfingers 7.12502
rthumb -19.0086 3.94073
lclavicle -5.75482e-014 1.19271e-015
lhumerus -37.3703 -5.74458 85.6501
lradius 65.8845
lwrist -14.9716
lhand -15.0096 36.9758
lfingers 7.12502
lthumb 11.1555 66.6593
rfemur -11.9869 -9.42035 24.4841
rtibia 61.6166
rfoot -12.1358 -4.91686
rtoes -0.5222
lfemur -30.659 3.7203 -9.88204
ltibia 44.7848
lfoot -19.1409 -8.31932
ltoes -31.7169
66
root 18.8559 16.5015 -11.367 2.25174 -33.964 5.07985
lowerback 9.77897 2.28392 -6.5013
upperback 4.17855 2.39149 0.0716613
thorax -1.3848 1.11194 3.46515
lowerneck -16.9676 -4.63822 -10.7115
upperneck 16.8496 -5.25544 8.0364
head 8.54808 -2.37165 3.82815
rclavicle -6.16232e-015 -1.94809e-014
rhumerus -22.3357 -16.8771 -68.7114
rradius 115.674
rwrist -10.0952
rhand -45.9407 32.501
rfingers 7.12502
rthumb -18.6886 3.37873
lclavicle -6.16232e-015 -1.94809e-014
lhumerus -36.1992 -8.45353 86.6253
lradius 67.6584
lwrist -15.1871
lhand -15.2968 36.7043
lfingers 7.12502
lthumb 10.8784 66.4026
rfemur -13.8558 -10.8326 23.3641
rtibia 64.7393
rfoot -12.5384 -4.32199
rtoes -1.93759
lfemur -30.2912 3.94049 -10.6939
ltibia 44.9207
lfoot -19.784 -8.23082
ltoes -33.5296
67
root 18.7566 16.4963 -11.2559 2.36242 -33.7965 4.71351
lowerback 10.7666 2.0547 -6.37528
upperback 3.74028 2.02029 0.277559
thorax -2.34766 0.967442 3.62099
lowerneck -16.6631 -4.34685 -10.6993
upperneck 17.0548 -4.86064 7.84069
head 8.51689 -2.21343 3.81594
rclavicle 4.73108e-014 -9.14409e-015
rhumerus -22.2849 -15.886 -68.6005
rradius 115.754
rwrist -10.075
rhand -45.4709 31.5457
rfingers 7.12502
rthumb -18.2367 2.3806
lclavicle 4.73108e-014 -9.14409e-015
lhumerus -36.1415 -10.7849 88.1018
lradius 69.6297
lwrist -15.7305
lhand -15.8354 36.309
lfingers 7.12502
lthumb 10.359 66.0338
rfemur -15.7308 -11.9396 23.5704
rtibia 67.4793
rfoot -12.9907 -4.60363
rtoes -0.615595
lfemur -29.8233 4.44226 -10.2801
ltibia 45.1346
lfoot -20.3082 -8.58454
ltoes -34.309
68
root 18.6526 16.4828 -11.1499 2.6154 -33.6075 4.26947
lowerback 11.2913 1.7677 -6.19033
upperback 3.58587 1.62592 0.481671
thorax -2.75473 0.787497 3.77174
lowerneck -16.6732 -4.04493 -10.6303
upperneck 17.0696 -4.4267 7.67496
head 8.47377 -2.02131 3.80381
rclavicle -5.61567e-014 -4.37326e-015
rhumerus -21.7845 -15.0876 -68.7362
rradius 115.942
rwrist -10.2711
rhand -45.8102 31.585
rfingers 7.12502
rthumb -18.5631 2.45069
lclavicle -5.61567e-014 -4.37326e-015
lhumerus -35.424 -12.7693 89.3056
lradius 71.711
lwrist -16.8225
lhand -15.0754 35.8332
lfingers 7.12502
lthumb 11.092 65.5201
rfemur -17.8025 -12.993 23.9889
rtibia 69.9069
rfoot -12.5163 -5.83944
rtoes 1.157
lfemur -29.5109 5.1102 -9.78914
ltibia 45.4155
lfoot -20.9416 -9.08396
ltoes -35.0853
69
root 18.5417 16.4656 -11.0493 2.79055 -33.4746 4.23861
lowerback 11.5055 1.49423 -6.15148
upperback 3.50365 1.24945 0.415875
thorax -2.91416 0.60765 3.73022
lowerneck -16.6711 -3.82382 -10.6875
upperneck 16.9131 -4.13637 7.85335
head 8.39616 -1.86927 3.91008
rclavicle -1.15295e-014 -6.36111e-015
rhumerus -21.3263 -14.5225 -69.1893
rradius 116.198
rwrist -10.4835
rhand -46.2883 32.4834
rfingers 7.12502
rthumb -19.0229 3.39367
lclavicle -1.15295e-014 -6.36111e-015
lhumerus -34.1988 -14.898 90.1209
lradius 73.6704
lwrist -17.9342
lhand -14.2693 34.9464
lfingers 7.12502
lthumb 11.8694 64.59
rfemur -19.9688 -13.9806 24.0888
rtibia 72.0696
rfoot -12.249 -7.20713
rtoes 4.61829
lfemur -29.238 5.74053 -9.66475
ltibia 45.4705
lfoot -21.447 -9.61263
ltoes -35.1865
70
root 18.4253 16.443 -10.9739 3.52764 -33.1821 3.5156
lowerback 11.5619 1.2465 -5.60815
upperback 3.50331 0.983512 0.494996
thorax -2.91088 0.47514 3.54355
lowerneck -16.9284 -3.76185 -10.6943
upperneck 16.7346 -4.04713 8.02574
head 8.37635 -1.80331 3.9783
rclavicle 5.89397e-014 -1.68967e-014
rhumerus -20.6558 -14.3652 -69.6965
rradius 116.296
rwrist -10.5009
rhand -45.8557 32.0183
rfingers 7.12502
rthumb -18.6069 2.88824
lclavicle 5.89397e-014 -1.68967e-014
lhumerus -32.3632 -17.5646 90.748
lradius 75.3398
lwrist -18.6185
lhand -15.2245 33.7674
lfingers 7.12502
lthumb 10.9482 63.4619
rfemur -22.4816 -14.8108 25.1653
rtibia 73.898
rfoot -12.7783 -8.70014
rtoes 8.82175
lfemur -29.2724 6.04368 -8.76832
ltibia 45.4019
lfoot -21.5393 -10.2464
ltoes -33.8335
71
root 18.305 16.4561 -10.8527 2.05386 -33.0437 6.23739
lowerback 11.0123 1.22726 -7.53724
upperback 4.13527 0.775082 -0.329924
thorax -1.92917 0.318987 3.80287
lowerneck -17.796 -3.81994 -10.2393
upperneck 16.4039 -4.11493 7.92019
head 8.41317 -1.79492 3.84865
rclavicle -1.20662e-013 1.2921e-014
rhumerus -19.4713 -14.7157 -70.4588
rradius 116.351
rwrist -10.3659
rhand -44.972 30.8541
rfingers 7.12502
rthumb -17.7567 1.64486
lclavicle -1.20662e-013 1.2921e-014
lhumerus -29.5772 -20.4685 90.963
lradius 77.0395
lwrist -19.1145
lhand -15.9533 32.721
lfingers 7.12502
lthumb 10.2452 62.4515
rfemur -24.3228 -16.3541 22.4396
rtibia 75.3314
rfoot -13.508 -9.13043
rtoes 8.34684
lfemur -28.3265 5.4193 -11.2136
ltibia 45.0741
lfoot -21.8446 -9.95054
ltoes -31.7097
72
root 18.1985 16.4655 -10.7266 0.990773 -33.6538 7.93945
lowerback 12.2787 1.33889 -9.47711
upperback 3.33691 0.534511 -0.379572
thorax -3.43865 0.285049 4.86717
lowerneck -17.4743 -3.41575 -10.0699
upperneck 16.9865 -3.52877 7.25659
head 8.47873 -1.58712 3.67708
rclavicle 1.11916e-013 -1.2921e-014
rhumerus -20.3618 -13.2046 -70.2641
rradius 116.646
rwrist -10.0198
rhand -44.481 30.1982
rfingers 7.12502
rthumb -17.2842 0.946809
lclavicle 1.11916e-013 -1.2921e-014
lhumerus -29.3014 -21.9869 92.3957
lradius 79.0874
lwrist -19.8544
lhand -15.8739 31.8659
lfingers 7.12502
lthumb 10.3218 61.5926
rfemur -26.0912 -17.0442 20.6694
rtibia 76.3338
rfoot -14.0461 -9.43445
rtoes 7.17398
lfemur -27.1055 5.4609 -12.7101
ltibia 44.6807
lfoot -22.292 -9.43232
ltoes -30.5861
73
root 18.0919 16.4653 -10.6175 1.56356 -34.5739 6.52936
lowerback 12.8038 1.50085 -8.11381
upperback 3.23059 0.867727 -0.23267
thorax -3.88076 0.463791 4.19763
lowerneck -17.4398 -3.32967 -9.81111
upperneck 17.1478 -3.44736 7.05035
head 8.51063 -1.55526 3.57596
rclavicle 7.34509e-014 -1.37161e-014
rhumerus -20.506 -12.9278 -70.7863
rradius 116.712
rwrist -9.35712
rhand -44.3595 30.4093
rfingers 7.12502
rthumb -17.1673 1.14764
lclavicle 7.34509e-014 -1.37161e-014
lhumerus -27.6323 -24.8966 92.9215
lradius 80.7743
lwrist -20.1195
lhand -16.0374 31.5363
lfingers 7.12502
lthumb 10.1641 61.2708
rfemur -27.7273 -16.7954 22.2395
rtibia 76.8046
rfoot -14.6862 -10.0626
rtoes 8.20231
lfemur -25.8638 6.31732 -11.1573
ltibia 44.2702
lfoot -22.7259 -9.14107
ltoes -31.2865
74
root 17.959 16.4716 -10.5098 1.67054 -34.8841 6.39658
lowerback 12.8149 1.48274 -8.15584
upperback 3.25052 0.841742 -0.147334
thorax -3.86376 0.449997 4.31615
lowerneck -17.4568 -3.1772 -9.80938
upperneck 17.1282 -3.21549 6.9575
head 8.48394 -1.45497 3.57296
rclavicle 7.15625e-015 1.98785e-015
rhumerus -20.2318 -12.412 -71.1643
rradius 116.485
rwrist -9.01143
rhand -44.5001 31.1379
rfingers 7.12502
rthumb -17.3025 1.88813
lclavicle 7.15625e-015 1.98785e-015
lhumerus -25.6465 -27.218 93.5513
lradius 82.337
lwrist -20.3986
lhand -16.882 31.6992
lfingers 7.12502
lthumb 9.34922 61.4719
rfemur -29.6225 -17.2304 22.7689
rtibia 77.0354
rfoot -15.0675 -10.4658
rtoes 7.00887
lfemur -24.9576 6.53775 -10.8253
ltibia 43.9327
lfoot -23.1608 -8.58677
ltoes -32.3775
75
root 17.8279 16.4789 -10.3967 1.49456 -35.3155 6.94885
lowerback 12.698 1.46398 -8.76846
upperback 3.26245 0.746901 -0.18616
thorax -3.77813 0.402891 4.63719
lowerneck -17.705 -2.91574 -9.79288
upperneck 17.1402 -2.81262 6.85259
head 8.49307 -1.27065 3.58521
rclavicle 2.55438e-014 -3.97569e-016
rhumerus -19.7681 -11.8149 -71.5163
rradius 116.249
rwrist -8.19332
rhand -44.47 30.8926
rfingers 7.12502
rthumb -17.2736 1.64025
lclavicle 2.55438e-014 -3.97569e-016
lhumerus -23.4481 -29.0806 93.883
lradius 83.9415
lwrist -20.6906
lhand -17.7262 31.5606
lfingers 7.12502
lthumb 8.53458 61.3681
rfemur -31.6509 -17.5415 22.6518
rtibia 77.0176
rfoot -15.5192 -10.472
rtoes 6.10216
lfemur -24.2044 6.46374 -11.1654
ltibia 43.6927
lfoot -23.4946 -7.83162
ltoes -32.9135
76
root 17.7058 16.4826 -10.2847 1.54984 -35.8105 7.08619
lowerback 12.7555 1.43022 -8.77367
upperback 3.15837 0.68561 -0.29121
thorax -3.91037 0.381339 4.53771
lowerneck -17.8536 -2.65299 -9.50647
upperneck 17.2163 -2.45693 6.56883
head 8.50507 -1.11195 3.48618
rclavicle -9.69075e-015 8.54774e-015
rhumerus -19.542 -11.4285 -72.0558
rradius 116.272
rwrist -7.41305
rhand -43.5652 29.9511
rfingers 7.12502
rthumb -16.4026 0.624593
lclavicle -9.69075e-015 8.54774e-015
lhumerus -21.2496 -31.1681 93.8029
lradius 85.4106
lwrist -20.7958
lhand -18.2095 30.8737
lfingers 7.12502
lthumb 8.06813 60.6997
rfemur -33.5949 -17.5668 22.9029
rtibia 76.6668
rfoot -16.7397 -9.65347
rtoes 7.51493
lfemur -23.4144 6.15608 -11.1361
ltibia 43.3802
lfoot -23.7055 -6.88609
ltoes -33.4216
77
root 17.5824 16.4928 -10.1664 1.67073 -36.2268 7.17313
lowerback 12.709 1.36063 -8.60992
upperback 3.07807 0.609735 -0.425677
thorax -3.9573 0.346914 4.31484
lowerneck -17.9324 -2.38672 -9.08022
upperneck 17.1336 -2.11983 6.20711
head 8.45232 -0.960034 3.33224
rclavicle -7.1811e-014 2.04748e-014
rhumerus -19.3692 -10.9644 -72.6748
rradius 116.306
rwrist -7.33023
rhand -42.8624 29.7161
rfingers 7.12502
rthumb -15.7258 0.335039
lclavicle -7.1811e-014 2.04748e-014
lhumerus -18.9489 -32.9696 93.7132
lradius 86.6221
lwrist -21.1501
lhand -18.9006 30.1476
lfingers 7.12502
lthumb 7.4011 59.9982
rfemur -35.4485 -17.6636 23.2421
rtibia 75.9101
rfoot -18.0094 -8.35047
rtoes 6.75994
lfemur -22.6013 5.80054 -11.0961
ltibia 43.0137
lfoot -24.1238 -5.7249
ltoes -34.5147
78
root 17.4541 16.5122 -10.0442 1.58501 -36.7983 7.61977
lowerback 12.5843 1.31307 -8.90965
upperback 3.00113 0.514667 -0.480366
thorax -3.95815 0.304851 4.44138
lowerneck -18.2108 -2.04728 -8.86261
upperneck 17.2762 -1.60691 5.80715
head 8.50193 -0.743601 3.22593
rclavicle -6.95746e-014 2.26615e-014
rhumerus -19.0654 -10.0377 -73.3039
rradius 116.15
rwrist -7.2802
rhand -43.0738 30.6756
rfingers 7.12502
rthumb -15.9294 1.31071
lclavicle -6.95746e-014 2.26615e-014
lhumerus -16.7343 -34.0955 93.8895
lradius 87.6972
lwrist -21.6074
lhand -19.876 29.4131
lfingers 7.12502
lthumb 6.45948 59.2946
rfemur -37.239 -17.7104 23.336
rtibia 74.7584
rfoot -18.5115 -7.34914
rtoes 4.04144
lfemur -21.6858 5.62371 -11.4063
ltibia 42.5626
lfoot -24.3569 -4.57277
ltoes -35.9196
79
root 17.3188 16.5288 -9.92646 1.34028 -37.3324 8.23039
lowerback 12.4916 1.2653 -9.37653
upperback 2.92251 0.3953 -0.519933
thorax -3.97434 0.253083 4.6816
lowerneck -18.5776 -1.79619 -9.14214
upperneck 17.6907 -1.1757 5.87628
head 8.67504 -0.554016 3.35917
rclavicle 1.18973e-013 1.68967e-014
rhumerus -18.8728 -9.065 -73.9413
rradius 115.985
rwrist -7.19356
rhand -43.1997 31.8963
rfingers 7.12502
rthumb -16.0507 2.54107
lclavicle 1.18973e-013 1.68967e-014
lhumerus -14.6112 -35.2158 94.099
lradius 88.7219
lwrist -21.8694
lhand -20.4977 28.5412
lfingers 7.12502
lthumb 5.85932 58.4401
rfemur -38.926 -17.769 23.332
rtibia 73.3117
rfoot -18.7473 -6.39365
rtoes 1.08404
lfemur -20.6879 5.30016 -11.8535
ltibia 42.0276
lfoot -24.2328 -3.5611
ltoes -36.3438
